Inverse Dynamics Generalized Forces
version=1
nRows=10
nColumns=44
inDegrees=no
endheader
time	pelvis_tilt_moment	pelvis_list_moment	pelvis_rotation_moment	pelvis_tx_force	pelvis_ty_force	pelvis_tz_force	hip_flexion_r_moment	hip_adduction_r_moment	hip_rotation_r_moment	hip_flexion_l_moment	hip_adduction_l_moment	hip_rotation_l_moment	lumbar_extension_moment	lumbar_bending_moment	lumbar_rotation_moment	knee_angle_r_moment	knee_frontal_r_moment	knee_angle_r_beta_force	knee_angle_l_moment	knee_frontal_l_moment	knee_angle_l_beta_force	arm_flex_r_moment	arm_add_r_moment	arm_rot_r_moment	arm_flex_l_moment	arm_add_l_moment	arm_rot_l_moment	knee_adduction_r_moment	knee_adduction_l_moment	elbow_flex_r_moment	elbow_flex_l_moment	ankle_angle_r_moment	ankle_angle_l_moment	pro_sup_r_moment	pro_sup_l_moment	wrist_flex_r_moment	wrist_dev_r_moment	wrist_flex_l_moment	wrist_dev_l_moment	subtalar_angle_r_moment	subtalar_angle_l_moment	mtp_angle_r_moment	mtp_angle_l_moment
    3.00000000000000	   -3.05852627382920	   15.81840792940492	    2.52796534819877	   20.51743256311123	  -17.12678999535262	  -16.75990011996077	    6.83775259158705	    0.26289155075321	   -2.02091855042958	  -18.52590047404296	  -58.69268443282564	    8.02908895332278	   11.88934684725646	    1.05475020264172	    6.04478633501159	   -4.40417830489454	    1.82849726548350	   -0.00557025279698	   -1.17460599575351	  -29.42996953356359	   -0.03914166537789	    0.51915163393518	   -3.39464728029923	   -0.63154398879929	   -2.52053115547005	   -2.21319833366840	   -0.23928112196068	    1.51892617981772	  -30.63220221929080	    1.33492094748191	    0.85969407646209	    1.08271514595745	  -64.41152730021193	   -0.05421407405954	   -0.02336232686421	   -0.04181941304914	   -0.18632317383336	    0.02291722450611	   -0.12167672550518	   -0.10376869017667	   17.28767474747502	   -0.09618677722608	   -0.03593813241980
    3.00500000000000	   -3.67186861673169	   13.63265500311292	    2.06804904496171	   22.32303556435156	  -16.03085660097913	  -17.60104716748221	    6.39250465691717	   -0.12658822570656	   -1.85429778036902	  -17.87378809174686	  -57.40353334706923	    7.39621105977430	   11.33323518261832	    0.12822587547126	    5.91569587563242	   -3.77484889671608	    1.62470274487268	   -0.00515697148384	    0.38104009606939	  -28.59628591138496	   -0.03910505356208	    0.65300051497426	   -3.36370507109429	   -0.63626472806846	   -2.52619213121005	   -2.22979861255107	   -0.22785068840792	    1.36972682269876	  -29.76808155705422	    1.34692453546290	    0.85036832223605	    1.00788483301660	  -66.00524332552172	   -0.05542299174988	   -0.02197943205576	   -0.04482740174003	   -0.18776070923056	    0.02590571694088	   -0.11914660558827	   -0.12352808593435	   17.10480753919586	   -0.08356695941420	   -0.03653080819214
    3.01000000000000	   -4.25946288752995	   11.16338307364857	    1.56338515790688	   23.67595382979605	  -15.58080990000698	  -18.05480406313463	    6.03545700251463	   -0.66565992167750	   -1.60927839368879	  -17.33983015519513	  -56.13168955453818	    6.79259322685042	   10.82177420411307	   -0.78472224769988	    5.72810777118162	   -3.20601270139927	    1.34522061790963	   -0.00480963473315	    1.86305100492513	  -27.80836114467405	   -0.03905166748535	    0.77966574411395	   -3.33060557364175	   -0.64000637735731	   -2.52517527611724	   -2.23719684387286	   -0.21550559629942	    1.14000687717073	  -28.95492649136725	    1.35883936657209	    0.84310815978196	    0.94441260272595	  -67.47799357242248	   -0.05654738066746	   -0.02069368248434	   -0.04762467448853	   -0.18911427312383	    0.02903065541236	   -0.11673416016446	   -0.14780946488119	   16.90022899330437	   -0.07170754728857	   -0.03715655913564
    3.01500000000000	   -4.78812265910235	    8.46901763485893	    1.02067107883306	   24.57962676744400	  -15.72023171424700	  -18.13731629880226	    5.77270259376999	   -1.34215172661556	   -1.29318254762814	  -16.90421939372905	  -54.89939509781529	    6.22143993881876	   10.36035800137371	   -1.67425211774929	    5.49107583494563	   -2.70635231833369	    0.99671978833734	   -0.00452563072444	    3.26455997262325	  -27.07578398362428	   -0.03898401210229	    0.89903205762729	   -3.29509120342918	   -0.64252360480432	   -2.51817720443965	   -2.23469381907421	   -0.20214794504736	    0.83551899068501	  -28.20222933349026	    1.37083694888310	    0.83773836642791	    0.89344276647233	  -68.82397953837787	   -0.05756819408553	   -0.01950577504653	   -0.05014113061373	   -0.19042048325530	    0.03227997168542	   -0.11441291398606	   -0.17578272308504	   16.67485039659790	   -0.06081355195371	   -0.03778241911974
    3.02000000000000	   -5.22876262699148	    5.61461372903751	    0.44876621632275	   25.05308564989919	  -16.35876613873607	  -17.87465483442504	    5.60718776301400	   -2.14158484180624	   -0.91519446275327	  -16.54419337045539	  -53.73002321432298	    5.68472366004298	    9.95208000762220	   -2.53028621698276	    5.21459352389689	   -2.27952195082966	    0.58713163781433	   -0.00430451413608	    4.57917963736162	  -26.40783747537199	   -0.03890478351621	    1.01115607597225	   -3.25700132426218	   -0.64360369004165	   -2.50602481646636	   -2.22196992011181	   -0.18773284102367	    0.46375611667451	  -27.51896918867219	    1.38308134981632	    0.83402009216787	    0.85604806266029	  -70.03797110841678	   -0.05846832846522	   -0.01841520124538	   -0.05231308348592	   -0.19171373110133	    0.03563171776352	   -0.11215240439909	   -0.20682850338465	   16.42948051668493	   -0.05105697860677	   -0.03837780373500
    3.02500000000000	   -5.55752747089675	    2.66892228487079	   -0.14192844969382	   25.12874457608138	  -17.38247700591623	  -17.30044159208925	    5.53832984358185	   -3.04701682144080	   -0.48617727890720	  -16.23505012613676	  -52.64635000964805	    5.18314269178289	    9.59778007102192	   -3.34269959140909	    4.90929105345032	   -1.92431327924011	    0.12566816439849	   -0.00414733204508	    5.80121622209822	  -25.81285133563410	   -0.03881679840137	    1.11625064310315	   -3.21632344411911	   -0.64308152582349	   -2.48964633081469	   -2.19908379302716	   -0.17227202049764	    0.03395099284292	  -26.91299959436668	    1.39572119443036	    0.83166234303171	    0.83309475002100	  -71.11636285210443	   -0.05923348275690	   -0.01742050683955	   -0.05408685679985	   -0.19302537102731	    0.03905457346772	   -0.10991959665702	   -0.24047525456301	   16.16498008079447	   -0.04257514315950	   -0.03891506607263
    3.03000000000000	   -5.75650546697740	   -0.29877038483115	   -0.74014677253753	   24.84984782908638	  -18.66412105348678	  -16.45322668897629	    5.56190359822860	   -4.03887340435781	   -0.01847874932570	  -15.95116466298568	  -51.66858167937473	    4.71614726278838	    9.29620506615093	   -4.10155495171254	    4.58611650016674	   -1.63511138626906	   -0.37715145735932	   -0.00405595877400	    6.92598601319584	  -25.29746196315221	   -0.03872292467083	    1.21466272795917	   -3.17323245970934	   -0.64085162766674	   -2.47003935794080	   -2.16645494606588	   -0.15583429525663	   -0.44294766211447	  -26.39035575309419	    1.40888223951825	    0.83033534425742	    0.82513808470260	  -72.05822996649074	   -0.05985289818543	   -0.01651951603708	   -0.05542188853331	   -0.19438302113744	    0.04250891513647	   -0.10768037046258	   -0.27632771201585	   15.88242117261722	   -0.03547034872452	   -0.03936996784712
    3.03500000000000	   -5.81415373503692	   -3.22166883391129	   -1.33439640438227	   24.26753053915763	  -20.07259358482328	  -15.37401227642792	    5.67013263330249	   -5.09481523471593	    0.47429004423530	  -15.66702506099582	  -50.81245966829644	    4.28203803671344	    9.04426433536237	   -4.79737393724200	    4.25601289288898	   -1.40255932972014	   -0.90949149797720	   -0.00403252333389	    7.95020205145263	  -24.86591393734845	   -0.03862601221351	    1.30684603667977	   -3.12811444174185	   -0.63687634874854	   -2.44823763888976	   -2.12483137740356	   -0.13854275247177	   -0.95433977104735	  -25.95461071594919	    1.42266093271920	    0.82968508531748	    0.83235545909925	  -72.86622756336575	   -0.06031992870744	   -0.01570951056686	   -0.05629312586663	   -0.19580998320835	    0.04594840024513	   -0.10540099964654	   -0.31399923899768	   15.58322861081407	   -0.02981066069238	   -0.03972206773593
    3.04000000000000	   -5.72554743843167	   -6.03804504302753	   -1.91348755632582	   23.43749561286563	  -21.48108067666486	  -14.10426010586773	    5.85191369917061	   -6.18967926595401	    0.97751838630566	  -15.35829038238945	  -50.08773342109308	    3.87813462454560	    8.83735666870572	   -5.42142940753080	    3.92960303348009	   -1.21434981276182	   -1.45822908807503	   -0.00407899875814	    8.87237802379121	  -24.51952144142055	   -0.03852882343615	    1.39332979953008	   -3.08157281008443	   -0.63118980162616	   -2.42527792049450	   -2.07524423818538	   -0.12056889074305	   -1.48609247197317	  -25.60639417429733	    1.43711929238375	    0.82934833663044	    0.85451802787939	  -73.54719839191962	   -0.06063240447530	   -0.01498736132831	   -0.05669254873537	   -0.19732478503192	    0.04932197970154	   -0.10304955452856	   -0.35305678938314	   15.26928857146142	   -0.02563149241796	   -0.03995502996912
    3.04500000000000	   -5.49253136465012	   -8.69314425750622	   -2.46690886529400	   22.41637970847574	  -22.77368542841597	  -12.68460013794173	    6.09310625334532	   -7.29552930864110	    1.47591501603264	  -15.00284777503368	  -49.49721099507425	    3.50100543772462	    8.66974304553961	   -5.96604066459854	    3.61689303659447	   -1.05607022400361	   -2.00903982619372	   -0.00419699907593	    9.69318506839007	  -24.25637369166949	   -0.03843396430227	    1.47468541909858	   -3.03441624256125	   -0.62389731566371	   -2.40216822599072	   -2.01895229190334	   -0.10212410737863	   -2.02272198524031	  -25.34315338417225	    1.45228135190130	    0.82896745110315	    0.89099664646209	  -74.11239206452161	   -0.06079276534410	   -0.01434961689738	   -0.05662972495703	   -0.19894084547944	    0.05257621377820	   -0.10059716744771	   -0.39298350275492	   14.94301762754474	   -0.02293771738265	   -0.04005685665462
